# xmcd
# 
# Track frame offsets:
#     150
#     22752
#     37015
#     59672
#     82672
#     102855
#     126932
#     161497
#     178165
#     197892
#     223855
#     245602
#     262247
# 
# Disc length: 3664
# 
# Revision: 3
# Processed by: cddbd v1.5.2PL0 Copyright (c) Steve Scherf et al.
# Submitted via: fre:ac v1.0.31
# 
DISCID=bb0e4e0d
DTITLE=Blues - Now This Is What We Call the Blues Vol. 420
DYEAR=2003
DGENRE=Blues
TTITLE0=Hell Or High Water
TTITLE1=Fast And Free
TTITLE2=The Creeper
TTITLE3=Get Right Church
TTITLE4=Hard Times
TTITLE5=Big River
TTITLE6=Nice And Warm
TTITLE7=I Shall Not Be Moved
TTITLE8=In The Morning
TTITLE9=Twenty-Five Days
TTITLE10=Where'd My Good Friend Go
TTITLE11=Crazy Over You
TTITLE12=Blackbird
EXTD=
EXTT0=
EXTT1=
EXTT2=
EXTT3=
EXTT4=
EXTT5=
EXTT6=
EXTT7=
EXTT8=
EXTT9=
EXTT10=
EXTT11=
EXTT12=
PLAYORDER=
